<svg width="269px" height="49px" viewBox="0 0 269 49" version="1.1" xmlns="http://www.w3.org/2000/svg" xmlns:xlink="http://www.w3.org/1999/xlink">
    <g id="Symbols-&amp;-Type-Styles" stroke="none" stroke-width="1" fill="none" fill-rule="evenodd">
        <g id="nav-/-menu" transform="translate(-136.000000, -26.000000)" fill="#FEFEFE">
            <g id="Page-1-Copy-2" transform="translate(136.000000, 26.000000)">
                <polygon id="Fill-1" points="88.4843749 0.445142727 88.4843749 9.13284273 91.6678356 9.13284273 91.6678356 3.66087909 134.083844 3.66087909 134.083844 9.13284273 137.267304 9.13284273 137.267304 0.445142727"></polygon>
                <polygon id="Fill-2" points="134.083711 40.0276991 134.083711 45.5001082 91.6677033 45.5001082 91.6677033 40.0276991 88.4842426 40.0276991 88.4842426 48.7158445 137.267172 48.7158445 137.267172 40.0276991"></polygon>
                <polygon id="Fill-3" points="12.4697375 14.6862355 12.4697375 22.4113082 4.67138344 22.4113082 4.67138344 14.6862355 4.40983607e-05 14.6862355 4.40983607e-05 34.4742173 4.67138344 34.4742173 4.67138344 26.4827627 12.4697375 26.4827627 12.4697375 34.4742173 17.1410769 34.4742173 17.1410769 14.6862355"></polygon>
                <polygon id="Fill-4" points="21.9593961 14.6863691 35.7097059 14.6863691 35.7097059 18.5676145 26.6307354 18.5676145 26.6307354 22.4114418 35.0314731 22.4114418 35.0314731 26.3309964 26.6307354 26.3309964 26.6307354 30.5931055 35.7097059 30.5931055 35.7097059 34.4743509 21.9593961 34.4743509"></polygon>
                <path d="M48.6905875,18.2635027 L45.827722,27.2443118 L51.5538941,27.2443118 L48.6905875,18.2635027 Z M58.4473498,34.4744845 L53.7764515,34.4744845 L52.6462105,30.9349027 L44.7349646,30.9349027 L43.6047236,34.4744845 L38.9338252,34.4744845 L45.7897974,14.6865027 L51.5913777,14.6865027 L58.4473498,34.4744845 Z" id="Fill-5"></path>
                <polygon id="Fill-6" points="66.6826305 30.4025845 75.3095928 30.4025845 75.3095928 34.4744845 62.0112911 34.4744845 62.0112911 14.6869482 66.6826305 14.6869482"></polygon>
                <polygon id="Fill-7" points="80.7867856 18.7580909 74.7969052 18.7580909 74.7969052 14.6866364 91.4480052 14.6866364 91.4480052 18.7580909 85.4581249 18.7580909 85.4581249 34.4741727 80.7867856 34.4741727"></polygon>
                <polygon id="Fill-8" points="107.684404 34.4743064 107.684404 26.4832973 99.8860502 26.4832973 99.8860502 34.4743064 95.2147108 34.4743064 95.2147108 14.6863245 99.8860502 14.6863245 99.8860502 22.4113973 107.684404 22.4113973 107.684404 14.6863245 112.355744 14.6863245 112.355744 34.4743064"></polygon>
                <g id="Group-25" transform="translate(115.978689, 13.970345)">
                    <path d="M7.33607098,20.8850473 C5.15099721,20.8850473 2.40102344,20.4667655 0.366766066,19.6288655 L1.12040705,16.0518655 C2.89095623,16.5846291 5.37678082,17.0029109 7.37355459,17.0029109 C9.85982016,17.0029109 10.4247202,16.5089018 10.4247202,14.9863382 C10.4247202,13.5020836 10.2743448,13.1216655 6.39413,12.2837655 C1.04455787,11.1434018 0.555066066,9.65914727 0.555066066,5.92935636 C0.555066066,1.70511091 2.92799885,0.335783636 8.12719557,0.335783636 C10.0481202,0.335783636 12.7606103,0.602165455 14.6440513,1.13448364 L14.0795923,4.90213818 C12.0074103,4.44599273 9.85982016,4.21702909 8.20260377,4.21702909 C5.67841361,4.21702909 5.22596443,4.52172 5.22596443,6.08170182 C5.22596443,7.75616545 5.37678082,7.87020182 9.14410377,8.74552 C14.6819759,10.03912 15.0965005,10.9901655 15.0965005,14.7965745 C15.0965005,18.8684745 13.5892185,20.8850473 7.33607098,20.8850473" id="Fill-9"></path>
                    <polygon id="Fill-11" points="23.9416615 4.78774545 17.9517811 4.78774545 17.9517811 0.716290909 34.6028811 0.716290909 34.6028811 4.78774545 28.6130008 4.78774545 28.6130008 20.5038273 23.9416615 20.5038273"></polygon>
                    <path d="M49.656518,8.85951182 L49.656518,6.49993909 C49.656518,5.09230273 49.0162098,4.55998455 47.396477,4.55998455 L42.8375885,4.55998455 L42.8375885,10.9527027 L47.2456607,10.9527027 C49.0162098,10.9527027 49.656518,10.2680391 49.656518,8.85951182 L49.656518,8.85951182 Z M46.9823934,14.7199118 L42.8375885,14.7199118 L42.8375885,20.5041391 L38.1662492,20.5041391 L38.1662492,0.716602727 L47.3585525,0.716602727 C52.5193836,0.716602727 54.2149656,2.77103909 54.2149656,6.27186636 L54.2149656,9.12633909 C54.2149656,11.37143 53.612582,12.66503 51.6153672,13.7688664 L56.1358902,20.5041391 L50.8242426,20.5041391 L46.9823934,14.7199118 Z" id="Fill-13"></path>
                    <path d="M68.608891,4.29315727 L65.7460254,13.2739664 L71.4721975,13.2739664 L68.608891,4.29315727 Z M78.3656533,20.5041391 L73.6947549,20.5041391 L72.5645139,16.9645573 L64.653268,16.9645573 L63.523027,20.5041391 L58.8521287,20.5041391 L65.7081008,0.716157273 L71.5096811,0.716157273 L78.3656533,20.5041391 Z" id="Fill-15"></path>
                    <polygon id="Fill-17" points="84.1746862 4.78774545 78.1848059 4.78774545 78.1848059 0.716290909 94.8359059 0.716290909 94.8359059 4.78774545 88.8464666 4.78774545 88.8464666 20.5038273 84.1746862 20.5038273"></polygon>
                    <polygon id="Fill-19" points="98.3998472 0.716023636 112.150157 0.716023636 112.150157 4.59726909 103.071187 4.59726909 103.071187 8.44109636 111.471924 8.44109636 111.471924 12.3606509 103.071187 12.3606509 103.071187 16.62276 112.150157 16.62276 112.150157 20.5040055 98.3998472 20.5040055"></polygon>
                    <path d="M120.599756,14.1109755 C120.599756,15.9373391 121.051764,16.8505209 123.990038,16.8505209 C125.120279,16.8505209 126.175552,16.73693 127.117052,16.5462755 L127.117052,10.8377755 L131.486759,10.8377755 L131.486759,19.8564482 C129.151751,20.5424482 126.363411,20.8850027 123.839221,20.8850027 C117.925631,20.8850027 115.928416,18.7160845 115.928416,14.7582209 L115.928416,6.46207545 C115.928416,2.31444818 118.113049,0.335739091 124.10293,0.335739091 C126.213036,0.335739091 128.473077,0.526393636 130.921859,1.02040273 L130.507334,4.97826636 C128.284777,4.59740273 126.213036,4.40763909 123.915511,4.40763909 C121.503772,4.40763909 120.599756,5.01657545 120.599756,6.95653 L120.599756,14.1109755 Z" id="Fill-21"></path>
                    <polygon id="Fill-23" points="141.179579 14.8339927 134.210274 0.716201818 138.957021 0.716201818 143.515469 10.3816745 148.073475 0.716201818 152.819782 0.716201818 145.850918 14.8339927 145.850918 20.5041836 141.179579 20.5041836"></polygon>
                </g>
            </g>
        </g>
    </g>
</svg>