<?xml version="1.0" encoding="utf-8"?>
<!-- Generator: Adobe Illustrator 22.0.1, SVG Export Plug-In . SVG Version: 6.00 Build 0)  -->
<svg version="1.1" id="Layer_1" xmlns="http://www.w3.org/2000/svg" xmlns:xlink="http://www.w3.org/1999/xlink" x="0px" y="0px"
	 viewBox="0 0 1880.7 375.4" style="enable-background:new 0 0 1880.7 375.4;" xml:space="preserve">
<style type="text/css">
	.st0{fill:#FFFFFF;}
	.st1{fill:#F3901D;}
	.st2{enable-background:new    ;}
</style>
<path class="st0" d="M1811.4,189.4c0.6,0.2,0.6,0.4,1.5,0.8c6.5,3.8,10.9,5.2,15.3,5.2c10.3,0,17.6-7.5,17.6-18.3
	c0-6.9-1.9-10.7-11.1-22.2c-0.4-0.6-1.3-1.5-1.9-2.5l-2.3-2.7c-5-6.1-6.3-7.8-12-14.9c-7.4-10.7-9.7-17.4-9.7-27.1
	c0-19.1,12.2-32.1,29.8-32.1c6.3,0,12.2,1.5,18.7,4.6v14.3c-5.9-3.1-11.1-4.6-15.5-4.6c-9.2,0-16.6,7.6-16.6,16.8
	c0,6.1,3.4,13,11.6,23.1l2.1,2.5c19.1,23.7,23.3,31.5,23.3,44.7c0,19.5-12.8,32.7-31.7,32.7c-6.1,0-10.1-1-19.1-4.6L1811.4,189.4
	L1811.4,189.4z"/>
<path class="st0" d="M1102.6,138.9c0,38.8-2.5,51.6-11.6,61.1c-5.9,6.3-12.8,8.6-24.3,8.6c-11.1,0-19.1-2.5-24.4-8
	c-9-9.5-11.9-23.7-11.9-58.6c0-34.8,3.1-50.6,12.2-59.6c5.7-5.5,13.2-8,23.7-8C1094.4,74.5,1102.6,89,1102.6,138.9 M1048.9,134.3
	v7.1c0.6,17.8,1.3,30.2,2.3,36.9c0.2,2.1,0.9,4.6,1.9,7.2c2.7,6.3,6.9,9.2,13.6,9.2c3.8,0,7.3-1.7,10.3-4.6
	c5.2-5.7,7.1-16.4,7.1-42.2v-4.8c-0.4-17.8-0.8-30.4-1.9-37.4c-0.2-2.3-1-4.8-2.1-7.6c-2.7-6.7-7.1-9.8-13.4-9.8
	C1053.5,88.3,1048.9,100.1,1048.9,134.3"/>
<path class="st0" d="M1187.8,161.6c0,20.4-4.6,34.6-13.7,41.6c-5.2,4-11.9,5.9-21.2,5.9c-13.7,0-22.9-5.9-27.5-17.9
	c-3.8-10.1-5.5-22.7-5.5-44.5c0-2.7,0.2-5.6,0.2-8.6c0.6-16.2,1.5-28.1,2.5-35.5c1-7.1,5-15.1,9.7-19.5c5.4-5.5,13.2-8.2,23.1-8.2
	c16.8,0,30,11.3,31.1,27.1l-16.6,6.1c-1.4-13-6.1-18.9-14.4-18.9c-12.4,0-17,11.4-17,42.2v6.7c0.9,21.6,1.7,36.3,2.5,43.9
	c0.4,3.3,2.1,6.9,4.2,9.4c2.5,2.5,5.2,3.6,9.3,3.6c6.3,0,10.5-2.9,12.8-8.8c2.5-6.5,3.2-12.6,3.2-31.3h-15.9v-15.3h33.3
	L1187.8,161.6L1187.8,161.6z"/>
<path class="st0" d="M1767,77.2c19.9,0,29.8,11.1,29.8,33.4c0,19.7-5.1,29-18.7,34.4l22.5,62.7h-18.3l-20.6-61.3h-1.4v61.3h-17.6
	V77.2H1767L1767,77.2z M1760.2,134.5c14.3-0.4,19.3-6.1,19.3-21.8s-5.1-21.8-18.3-21.8h-1V134.5L1760.2,134.5z"/>
<path class="st1" d="M16.6,184c0.8,0.5,1,0.5,2,1.3c7.9,4.1,14.1,6.7,19.7,8.2c3.1,0.8,4.6,0.8,8.4,1c9.7-0.8,15.4-5.9,15.4-14.4
	c0-6.4-3.3-11-13.1-18.7c-1.8-1.5-2.1-1.5-3.1-2.6c-15.1-12.5-17.2-14.4-24.3-23.1c-7.2-8.7-11.5-20.7-11.5-32.5
	c0-28.9,20-48.9,48.9-48.9c9.5,0,22.8,2.8,31.8,6.9v37.4c-10.8-5.9-20.5-9.2-27.4-9.2c-9.5,0-15.1,4.9-15.1,12.8
	c0,6.7,5.1,13.3,17.7,22.8c1.3,1,1.5,1,2.3,1.8c10,8.2,18.2,16.4,22.8,22.3c6.7,9.2,10.5,20,10.5,31.3c0,28.9-22.5,49.9-53.5,49.9
	c-12,0-19-1.5-31.5-7.4L16.6,184L16.6,184z"/>
<path class="st1" d="M144.9,59l21.5,100.7h0.5L186.4,59h33.1l19.7,99.7h0.5L260.2,59h37.4l-40,167h-34.3l-15.6-73.8
	c-0.2-1.8-1-5.1-2-10.3c-0.5-3.3-1.5-7.9-2.6-14.3h-0.5l-0.3,3.3l-1.5,9.5l-1.3,6.1l-1.3,6.2L182.3,226h-33.8l-40-167H144.9
	L144.9,59z"/>
<path class="st1" d="M397,226.8c-10,3.1-14.1,3.8-21.5,3.8c-44.1,0-73.8-36.4-73.8-90.2c0-50,30.5-86.1,72.8-86.1
	c8.2,0,16.4,1.3,22.5,3.3v39.7c-9.7-3.1-13.1-3.6-20.5-3.6c-19.7,0-34.3,20-34.3,47.9c0,30,14.1,49.2,36.1,49.2
	c6.4,0,9.7-0.8,18.7-3.8L397,226.8L397,226.8z"/>
<polygon class="st0" points="567.9,77.2 567.9,92.1 547.9,92.1 547.9,207.8 530.3,207.8 530.3,92.1 510.4,92.1 510.4,77.2 "/>
<polygon class="st0" points="632.3,77.2 632.3,92.1 603.3,92.1 603.3,133.5 630.2,133.5 630.2,148.4 603.3,148.4 603.3,193.3 
	633.1,193.3 633.1,207.8 585.9,207.8 585.9,77.2 "/>
<path class="st0" d="M703.4,205.4c-5.9,2.7-9.7,3.8-15.7,3.8c-11.1,0-21.2-4.8-27.9-13c-7.8-9.9-10.9-24.1-10.9-50.1
	c0-33,4.2-49.5,15.5-61.1c6.3-6.5,14.7-10.1,23.9-10.1c4,0,8.8,0.6,15.1,2.1v16c-5-1.9-7.1-2.3-11.1-2.3c-8.4,0-16.4,6.1-19.9,15.1
	c-3.4,8.4-4.8,19.1-4.8,36.3c0,27.3,2.1,37.8,8.8,44.7c3.8,4.2,8.6,6.3,14.5,6.3c4,0,6.5-0.6,12.6-3.1L703.4,205.4L703.4,205.4z"/>
<polygon class="st0" points="739.5,77.2 739.5,128 766.6,128 766.6,77.2 784.2,77.2 784.2,207.8 766.6,207.8 766.6,142.9 
	739.5,142.9 739.5,207.8 721.9,207.8 721.9,77.2 "/>
<polygon class="st0" points="866.9,77.2 866.9,207.8 853.1,207.8 819.7,118.2 819.3,118.2 819.3,207.8 803.5,207.8 803.5,77.2 
	817.6,77.2 851,166.8 851.4,166.8 851.4,77.2 "/>
<path class="st0" d="M955.5,138.9c0,38.8-2.5,51.6-11.5,61.1c-5.9,6.3-12.8,8.6-24.3,8.6c-11.1,0-19.1-2.5-24.3-8
	c-9-9.5-12-23.7-12-58.6c0-34.8,3.2-50.6,12.2-59.6c5.7-5.5,13.2-8,23.7-8C947.3,74.5,955.5,89,955.5,138.9 M901.8,134.3v7.1
	c0.6,17.8,1.3,30.2,2.3,36.9c0.2,2.1,0.8,4.6,1.9,7.2c2.7,6.3,6.9,9.2,13.7,9.2c3.8,0,7.3-1.7,10.3-4.6c5.2-5.7,7.1-16.4,7.1-42.2
	v-4.8c-0.4-17.8-0.8-30.4-1.9-37.4c-0.2-2.3-1.1-4.8-2.1-7.6c-2.7-6.7-7.1-9.8-13.4-9.8C906.4,88.3,901.8,100.1,901.8,134.3"/>
<polygon class="st0" points="993.5,77.2 993.5,193.1 1023.1,193.1 1023.1,207.8 975.8,207.8 975.8,77.2 "/>
<polygon class="st0" points="1218,77.2 1234.2,135.8 1234.6,135.8 1251,77.2 1268.4,77.2 1243,152.1 1243,207.8 1225.4,207.8 
	1225.4,153 1200.6,77.2 "/>
<path class="st0" d="M1414.2,77.2l28.3,130.6h-17l-4.8-25.8h-27.5l-4.8,25.8h-16.8l28.1-130.6H1414.2L1414.2,77.2z M1395.7,168.7
	h22.7l-11.3-61.9h-0.4L1395.7,168.7L1395.7,168.7z"/>
<polygon class="st0" points="1580.2,77.2 1580.2,92.1 1560.2,92.1 1560.2,207.8 1542.6,207.8 1542.6,92.1 1522.7,92.1 1522.7,77.2 
	"/>
<polygon class="st0" points="1657.8,77.2 1657.8,207.8 1644,207.8 1610.6,118.2 1610.2,118.2 1610.2,207.8 1594.4,207.8 
	1594.4,77.2 1608.5,77.2 1641.9,166.8 1642.3,166.8 1642.3,77.2 "/>
<polygon class="st0" points="1723.7,77.2 1723.7,92.1 1694.8,92.1 1694.8,133.5 1721.6,133.5 1721.6,148.4 1694.8,148.4 
	1694.8,193.3 1724.6,193.3 1724.6,207.8 1677.3,207.8 1677.3,77.2 "/>
<polygon class="st0" points="459.8,270.6 463.7,270.6 463.7,14.5 459.8,14.5 "/>
<path class="st0" d="M1480.9,77.2c19.9,0,29.8,11.1,29.8,33.4c0,19.7-5,29-18.7,34.4l22.4,62.7h-18.2l-20.6-61.3h-1.5v61.3h-17.6
	V77.2H1480.9L1480.9,77.2z M1474.2,134.5c14.3-0.4,19.3-6.1,19.3-21.8s-5-21.8-18.3-21.8h-1.1L1474.2,134.5L1474.2,134.5z"/>
<path class="st0" d="M1342.6,77.2c18.5,0,28.1,12.8,28.1,36.9c0,17.7-5.5,28.8-16.2,33.4c-5,2.1-10.7,2.8-23.1,2.9v57.3h-17.6V77.2
	H1342.6L1342.6,77.2z M1331.5,136.8c16-0.2,20.8-5.4,20.8-22.7c0-18.5-4.6-23.5-20.8-23.5V136.8L1331.5,136.8z"/>
<path class="st0" d="M1093.1,331.5h-7.8l-6.4-16.9h-25.5l-6,16.9h-7.9l23.1-60.3h7.3L1093.1,331.5z M1076.6,308.3l-9.5-25.7
	c-0.3-0.8-0.6-2.2-0.9-4h-0.2c-0.3,1.7-0.6,3.1-1,4l-9.4,25.7H1076.6z"/>
<path class="st0" d="M1125.5,331.5v-60.3h17.1c5.2,0,9.3,1.3,12.4,3.8c3.1,2.5,4.6,5.9,4.6,10c0,3.4-0.9,6.4-2.8,8.9
	s-4.4,4.3-7.6,5.4v0.2c4.1,0.5,7.3,2,9.7,4.6c2.4,2.6,3.7,6,3.7,10.1c0,5.2-1.8,9.3-5.5,12.5c-3.7,3.2-8.4,4.8-14,4.8H1125.5z
	 M1132.6,277.6v19.5h7.2c3.9,0,6.9-0.9,9.1-2.8c2.2-1.9,3.3-4.5,3.3-7.9c0-5.9-3.9-8.8-11.6-8.8H1132.6z M1132.6,303.4v21.7h9.6
	c4.1,0,7.4-1,9.6-2.9s3.4-4.7,3.4-8.1c0-7.1-4.8-10.7-14.5-10.7H1132.6z"/>
<path class="st0" d="M1173.9,331.5v-60.3h16.6c21.2,0,31.9,9.8,31.9,29.4c0,9.3-2.9,16.8-8.8,22.4s-13.8,8.5-23.7,8.5H1173.9z
	 M1181,277.6v47.5h9c7.9,0,14-2.1,18.4-6.3c4.4-4.2,6.6-10.2,6.6-18c0-15.4-8.2-23.2-24.6-23.2H1181z"/>
<path class="st0" d="M1259.8,332.5c-8.5,0-15.4-2.8-20.5-8.4c-5.1-5.6-7.7-13-7.7-22c0-9.7,2.6-17.4,7.9-23.2
	c5.2-5.8,12.4-8.7,21.4-8.7c8.3,0,15,2.8,20.1,8.4c5.1,5.6,7.6,12.9,7.6,22c0,9.8-2.6,17.6-7.8,23.3
	C1275.5,329.6,1268.5,332.5,1259.8,332.5z M1260.3,276.6c-6.3,0-11.5,2.3-15.4,6.8c-4,4.6-5.9,10.6-5.9,18c0,7.4,1.9,13.4,5.8,17.9
	c3.9,4.5,8.9,6.8,15.1,6.8c6.6,0,11.8-2.2,15.6-6.5c3.8-4.3,5.7-10.4,5.7-18.1c0-8-1.8-14.1-5.5-18.4
	C1271.9,278.8,1266.8,276.6,1260.3,276.6z"/>
<path class="st0" d="M1366.8,307.1c0,16.9-7.6,25.4-22.9,25.4c-14.6,0-21.9-8.1-21.9-24.4v-36.9h7.1v36.4c0,12.4,5.2,18.5,15.6,18.5
	c10.1,0,15.1-6,15.1-17.9v-37h7.1V307.1z"/>
<path class="st0" d="M1378.8,329.1v-8.3c1,0.8,2.1,1.6,3.4,2.3c1.3,0.7,2.7,1.2,4.2,1.7s2.9,0.8,4.4,1.1c1.5,0.3,2.9,0.4,4.1,0.4
	c4.3,0,7.6-0.8,9.7-2.4c2.1-1.6,3.2-3.9,3.2-7c0-1.6-0.4-3-1.1-4.2c-0.7-1.2-1.7-2.3-3-3.3c-1.3-1-2.8-1.9-4.5-2.9
	c-1.7-0.9-3.6-1.9-5.6-2.9c-2.1-1.1-4.1-2.1-5.9-3.2c-1.8-1.1-3.4-2.3-4.7-3.6c-1.3-1.3-2.4-2.8-3.2-4.5c-0.8-1.7-1.2-3.6-1.2-5.9
	c0-2.7,0.6-5.1,1.8-7.2c1.2-2,2.8-3.7,4.7-5s4.2-2.3,6.7-2.9c2.5-0.6,5.1-1,7.7-1c5.9,0,10.3,0.7,13,2.1v7.9
	c-3.6-2.5-8.1-3.7-13.7-3.7c-1.5,0-3.1,0.2-4.6,0.5c-1.5,0.3-2.9,0.8-4.1,1.6c-1.2,0.7-2.2,1.7-2.9,2.8c-0.8,1.1-1.1,2.5-1.1,4.2
	c0,1.5,0.3,2.9,0.9,4c0.6,1.1,1.4,2.1,2.5,3.1c1.1,0.9,2.5,1.8,4.1,2.7c1.6,0.9,3.5,1.8,5.6,2.9c2.2,1.1,4.2,2.2,6.1,3.4
	c1.9,1.2,3.6,2.5,5.1,3.9c1.5,1.4,2.6,3,3.5,4.7c0.9,1.7,1.3,3.7,1.3,6c0,3-0.6,5.5-1.7,7.5c-1.2,2.1-2.7,3.7-4.7,5
	c-2,1.3-4.3,2.2-6.8,2.8c-2.6,0.6-5.3,0.9-8.2,0.9c-1,0-2.1-0.1-3.5-0.2c-1.4-0.2-2.8-0.4-4.3-0.7c-1.5-0.3-2.8-0.7-4.1-1.1
	S1379.6,329.6,1378.8,329.1z"/>
<path class="st0" d="M1475.7,331.5h-7.8l-6.4-16.9H1436l-6,16.9h-7.9l23.1-60.3h7.3L1475.7,331.5z M1459.2,308.3l-9.5-25.7
	c-0.3-0.8-0.6-2.2-0.9-4h-0.2c-0.3,1.7-0.6,3.1-1,4l-9.4,25.7H1459.2z"/>
<path class="st0" d="M1549.2,329c-4.5,2.4-10,3.5-16.6,3.5c-8.6,0-15.4-2.8-20.6-8.3c-5.2-5.5-7.7-12.8-7.7-21.7
	c0-9.6,2.9-17.4,8.7-23.4c5.8-5.9,13.2-8.9,22.1-8.9c5.7,0,10.4,0.8,14.2,2.5v7.5c-4.3-2.4-9.1-3.6-14.3-3.6
	c-6.9,0-12.5,2.3-16.8,6.9c-4.3,4.6-6.5,10.8-6.5,18.5c0,7.3,2,13.2,6,17.5c4,4.4,9.3,6.5,15.8,6.5c6.1,0,11.3-1.3,15.7-4V329z"/>
<path class="st0" d="M1578.2,332.5c-6.4,0-11.4-2-15.2-6c-3.8-4-5.7-9.3-5.7-16c0-7.2,2-12.9,5.9-16.9s9.3-6.1,16-6.1
	c6.4,0,11.4,2,15,5.9c3.6,3.9,5.4,9.4,5.4,16.4c0,6.9-1.9,12.4-5.8,16.5C1589.9,330.4,1584.7,332.5,1578.2,332.5z M1578.7,293.3
	c-4.4,0-7.9,1.5-10.5,4.5c-2.6,3-3.9,7.2-3.9,12.5c0,5.1,1.3,9.1,3.9,12.1c2.6,2.9,6.1,4.4,10.5,4.4c4.5,0,7.9-1.4,10.3-4.3
	c2.4-2.9,3.6-7,3.6-12.3c0-5.4-1.2-9.5-3.6-12.4C1586.6,294.7,1583.2,293.3,1578.7,293.3z"/>
<path class="st0" d="M1670.3,331.5h-6.9v-24.7c0-4.8-0.7-8.2-2.2-10.3s-3.9-3.2-7.4-3.2c-2.9,0-5.4,1.3-7.5,4s-3.1,5.9-3.1,9.7v24.5
	h-6.9v-25.5c0-8.5-3.3-12.7-9.8-12.7c-3,0-5.5,1.3-7.5,3.8s-2.9,5.8-2.9,9.9v24.5h-6.9v-43h6.9v6.8h0.2c3.1-5.2,7.5-7.8,13.4-7.8
	c2.9,0,5.5,0.8,7.7,2.5c2.2,1.6,3.7,3.8,4.5,6.5c3.2-5.9,8-8.9,14.3-8.9c9.5,0,14.2,5.8,14.2,17.5V331.5z"/>
<path class="st0" d="M1689.9,325.3h-0.2v26h-6.9v-62.8h6.9v7.6h0.2c3.4-5.7,8.3-8.6,14.9-8.6c5.5,0,9.9,1.9,13,5.8s4.7,9,4.7,15.5
	c0,7.2-1.8,13-5.3,17.3s-8.3,6.5-14.4,6.5C1697.2,332.5,1692.9,330.1,1689.9,325.3z M1689.7,307.9v6c0,3.6,1.2,6.6,3.5,9.1
	c2.3,2.5,5.2,3.7,8.8,3.7c4.2,0,7.4-1.6,9.8-4.8c2.4-3.2,3.6-7.6,3.6-13.3c0-4.8-1.1-8.5-3.3-11.3c-2.2-2.7-5.2-4.1-9-4.1
	c-4,0-7.2,1.4-9.7,4.2C1690.9,300.2,1689.7,303.7,1689.7,307.9z"/>
<path class="st0" d="M1763.7,331.5h-6.9v-6.7h-0.2c-3,5.2-7.4,7.7-13.2,7.7c-4.3,0-7.6-1.1-10.1-3.4c-2.4-2.3-3.6-5.3-3.6-9
	c0-8,4.7-12.7,14.2-14l12.9-1.8c0-7.3-3-11-8.9-11c-5.2,0-9.9,1.8-14,5.3v-7.1c4.2-2.7,9.1-4,14.6-4c10.1,0,15.2,5.4,15.2,16.1
	V331.5z M1756.8,309.7l-10.4,1.4c-3.2,0.4-5.6,1.2-7.2,2.4c-1.6,1.1-2.4,3.1-2.4,6c0,2.1,0.8,3.8,2.2,5.1c1.5,1.3,3.5,2,6,2
	c3.4,0,6.2-1.2,8.5-3.6c2.2-2.4,3.3-5.4,3.3-9.1V309.7z"/>
<g class="st2">
	<path class="st0" d="M1811.1,331.5h-6.9V307c0-9.1-3.3-13.7-10-13.7c-3.4,0-6.3,1.3-8.6,3.9s-3.4,5.9-3.4,9.8v24.5h-6.9v-43h6.9
		v7.1h0.2c3.2-5.4,8-8.2,14.1-8.2c4.7,0,8.3,1.5,10.8,4.6c2.5,3,3.7,7.4,3.7,13.2V331.5z"/>
</g>
<g class="st2">
	<path class="st0" d="M1858.1,288.5l-19.8,49.9c-3.5,8.9-8.5,13.4-14.9,13.4c-1.8,0-3.3-0.2-4.5-0.5V345c1.5,0.5,2.8,0.8,4.1,0.8
		c3.5,0,6.1-2.1,7.8-6.2l3.4-8.2l-16.8-42.9h7.6l11.6,33.1c0.1,0.4,0.4,1.5,0.9,3.3h0.3c0.1-0.7,0.4-1.7,0.8-3.2l12.2-33.2H1858.1z"
		/>
</g>
</svg>
